<svg xmlns="http://www.w3.org/2000/svg" version="1.1" xmlns:xlink="http://www.w3.org/1999/xlink"
  xmlns:svgjs="http://svgjs.dev/svgjs" width="2000" height="1500" viewBox="0 0 2000 1500">
  <rect width="2000" height="1500" fill="#eff0f3"></rect>
  <g transform="matrix(0.75,0,0,0.75,249.090909090909,474.60175033376447)"><svg viewBox="0 0 396 145"
      data-background-color="#eff0f3" preserveAspectRatio="xMidYMid meet" height="732" width="2000"
      xmlns="http://www.w3.org/2000/svg" xmlns:xlink="http://www.w3.org/1999/xlink">
      <g id="tight-bounds" transform="matrix(1,0,0,1,0.2400000000000091,0.23724262587278133)"><svg
          viewBox="0 0 395.52 144.52551474825444" height="144.52551474825444" width="395.52">
          <g><svg viewBox="0 0 742.0535263889567 271.15106156988617" height="144.52551474825444" width="395.52">
              <g>
                <rect width="17.693692156489057" height="235.44231105923544" x="441.8385658546834"
                  y="17.854375255325365" fill="#000000" opacity="1" stroke-width="0" stroke="transparent"
                  fill-opacity="1" class="rect-qz-0" data-fill-palette-color="primary" rx="1%" id="qz-0"
                  data-palette-color="#3d3839"></rect>
              </g>
              <g transform="matrix(1,0,0,1,0,37.47456784359498)"><svg viewBox="0 0 395.52 196.2019258826962"
                  height="196.2019258826962" width="395.52">
                  <g id="textblocktransform"><svg viewBox="0 0 395.52 196.2019258826962" height="196.2019258826962"
                      width="395.52" id="textblock">
                      <g><svg viewBox="0 0 395.52 196.2019258826962" height="196.2019258826962" width="395.52">
                          <g transform="matrix(1,0,0,1,0,0)"><svg width="395.52"
                              viewBox="3.3 -33.13 85.67 42.510000000000005" height="196.2019258826962"
                              data-palette-color="#3d3839">
                              <path
                                d="M15.33 0.53L15.33 0.53Q13.08 0.53 11.41-0.23 9.75-0.98 8.72-2.38 7.7-3.78 7.35-5.63L7.35-5.63 6-5.63 7.23-9.43Q7.35-7.23 8.26-5.76 9.18-4.3 10.7-3.58 12.23-2.85 14.15-2.85L14.15-2.85Q17.2-2.85 18.81-4.65 20.43-6.45 20.43-10L20.43-10 20.43-14.58Q20.43-18.05 18.8-19.85 17.18-21.65 14.08-21.65L14.08-21.65Q12.23-21.65 10.8-20.93 9.38-20.2 8.44-18.95 7.5-17.7 7.15-16.1L7.15-16.1 6.23-18.93 7.38-18.93Q7.75-20.6 8.71-21.96 9.68-23.33 11.35-24.14 13.03-24.95 15.5-24.95L15.5-24.95Q19.9-24.95 22.2-22.21 24.5-19.48 24.5-14.28L24.5-14.28 24.5-10.23Q24.5-4.98 22.16-2.23 19.83 0.53 15.33 0.53ZM7.35 0L3.3 0 3.3-33.13 7.33-33.13 7.33-25.18 7.2-18.18 7.23-17.4 7.23-7.2 7.18-5.9 7.35 0ZM34.3 0L30.27 0 30.27-33.13 34.3-33.13 34.3 0ZM50.72 0.63L50.72 0.63Q45.47 0.63 42.76-2.21 40.05-5.05 40.05-10.38L40.05-10.38 40.05-14.1Q40.05-19.4 42.77-22.23 45.49-25.05 50.72-25.05L50.72-25.05Q55.97-25.05 58.68-22.23 61.39-19.4 61.39-14.1L61.39-14.1 61.39-10.38Q61.39-5.05 58.68-2.21 55.97 0.63 50.72 0.63ZM50.72-2.68L50.72-2.68Q53.97-2.68 55.66-4.6 57.34-6.53 57.34-10.15L57.34-10.15 57.34-14.33Q57.34-17.93 55.66-19.84 53.97-21.75 50.72-21.75L50.72-21.75Q47.49-21.75 45.8-19.84 44.09-17.93 44.09-14.33L44.09-14.33 44.09-10.15Q44.09-6.53 45.8-4.6 47.49-2.68 50.72-2.68ZM76.52-7.3L76.52-7.3Q71.54-7.3 68.88-9.47 66.22-11.65 66.22-15.7L66.22-15.7 66.22-16.32Q66.22-18.85 67.25-20.73 68.29-22.6 70.57-23.66 72.84-24.73 76.52-24.83L76.52-24.83 88.97-25.23 88.97-22.03 81.62-22.28 81.59-22.1Q83.32-21.75 84.42-20.9 85.52-20.05 86.06-18.78 86.59-17.5 86.59-15.8L86.59-15.8 86.59-15.25Q86.59-11.38 84.04-9.34 81.49-7.3 76.52-7.3ZM76.34 6.15L76.34 6.15 76.92 6.15Q79.17 6.15 80.78 5.81 82.39 5.48 83.27 4.75 84.14 4.03 84.14 2.83L84.14 2.83 84.14 2.73Q84.14 1.33 83.13 0.59 82.12-0.15 79.67-0.38L79.67-0.38 72.77-1 73.92-1.05Q72.52-0.85 71.45-0.4 70.39 0.05 69.79 0.79 69.19 1.53 69.19 2.63L69.19 2.63 69.19 2.68Q69.19 3.95 70.07 4.73 70.94 5.5 72.54 5.83 74.14 6.15 76.34 6.15ZM76.84 9.38L76.12 9.38Q72.82 9.38 70.43 8.81 68.04 8.25 66.73 6.99 65.42 5.73 65.42 3.6L65.42 3.6 65.42 3.5Q65.42 2 66.13 1 66.84 0 68.06-0.58 69.27-1.15 70.77-1.35L70.77-1.35 70.74-1.5Q68.69-1.85 67.72-2.71 66.74-3.58 66.74-4.95L66.74-4.95 66.74-4.98Q66.74-5.93 67.18-6.6 67.62-7.28 68.5-7.68 69.39-8.08 70.77-8.18L70.77-8.18 70.77-8.68 75.42-7.5 73.52-7.55Q71.82-7.53 71.17-7.14 70.52-6.75 70.52-5.98L70.52-5.98 70.52-5.95Q70.52-5.13 71.44-4.7 72.37-4.28 74.59-4.03L74.59-4.03 80.52-3.43Q84.39-3.03 86.17-1.56 87.94-0.1 87.94 2.75L87.94 2.75 87.94 2.88Q87.94 5.15 86.59 6.6 85.24 8.05 82.77 8.71 80.29 9.38 76.84 9.38L76.84 9.38ZM76.47-10.3L76.47-10.3Q78.57-10.3 79.95-10.91 81.34-11.53 82.06-12.76 82.77-14 82.77-15.8L82.77-15.8 82.77-16.4Q82.77-18.15 82.08-19.38 81.39-20.6 80.02-21.24 78.64-21.88 76.57-21.88L76.57-21.88 76.42-21.88Q74.17-21.88 72.75-21.19 71.34-20.5 70.7-19.26 70.07-18.03 70.07-16.38L70.07-16.38 70.07-15.8Q70.07-14 70.78-12.78 71.49-11.55 72.92-10.93 74.34-10.3 76.47-10.3Z"
                                opacity="1" transform="matrix(1,0,0,1,0,0)" fill="#000000" class="wordmark-text-0"
                                data-fill-palette-color="primary" id="text-0"></path>
                            </svg></g>
                        </svg></g>
                    </svg></g>
                </svg></g>
              <g transform="matrix(1,0,0,1,505.8508238658559,0)"><svg
                  viewBox="0 0 236.20270252310087 271.15106156988617" height="271.15106156988617"
                  width="236.20270252310087">
                  <g><svg xmlns="http://www.w3.org/2000/svg" xmlns:xlink="http://www.w3.org/1999/xlink" version="1.1"
                      x="0" y="0" viewBox="10.1 5.2 78.4 90" enable-background="new 0 0 100 100" xml:space="preserve"
                      height="271.15106156988617" width="236.20270252310087" class="icon-icon-0"
                      data-fill-palette-color="accent" id="icon-0">
                      <polygon fill-rule="evenodd" clip-rule="evenodd" fill="#000000"
                        points="88.5,28.2 68.4,59.9 68.5,22.3 " data-fill-palette-color="accent"></polygon>
                      <polygon fill-rule="evenodd" clip-rule="evenodd" fill="#000000"
                        points="49.8,5.2 67.2,38.5 34.7,19.6 " data-fill-palette-color="accent"></polygon>
                      <polygon fill-rule="evenodd" clip-rule="evenodd" fill="#000000"
                        points="67.8,38.3 67.8,22.3 60.8,24.5 " data-fill-palette-color="accent"></polygon>
                      <polygon fill-rule="evenodd" clip-rule="evenodd" fill="#000000"
                        points="88.2,73.2 50.6,71.7 83.2,52.9 " data-fill-palette-color="accent"></polygon>
                      <polygon fill-rule="evenodd" clip-rule="evenodd" fill="#000000"
                        points="69.1,60.3 82.8,52.3 77.4,47.4 " data-fill-palette-color="accent"></polygon>
                      <polygon fill-rule="evenodd" clip-rule="evenodd" fill="#000000"
                        points="48.7,95.2 31.5,61.9 63.9,80.9 " data-fill-palette-color="accent"></polygon>
                      <polygon fill-rule="evenodd" clip-rule="evenodd" fill="#000000"
                        points="50.5,72.2 64.2,80.2 65.8,73.1 " data-fill-palette-color="accent"></polygon>
                      <polygon fill-rule="evenodd" clip-rule="evenodd" fill="#000000"
                        points="10.1,72 30.5,40.4 30.1,78 " data-fill-palette-color="accent"></polygon>
                      <polygon fill-rule="evenodd" clip-rule="evenodd" fill="#000000"
                        points="30.9,62.1 30.8,78 37.8,75.8 " data-fill-palette-color="accent"></polygon>
                      <polygon fill-rule="evenodd" clip-rule="evenodd" fill="#000000"
                        points="11,27 48.5,28.9 15.8,47.3 " data-fill-palette-color="accent"></polygon>
                      <polygon fill-rule="evenodd" clip-rule="evenodd" fill="#000000"
                        points="30,40.1 16.1,47.9 21.5,52.9 " data-fill-palette-color="accent"></polygon>
                      <polygon fill-rule="evenodd" clip-rule="evenodd" fill="#000000"
                        points="48.2,28.3 34.5,20.2 32.9,27.4 " data-fill-palette-color="accent"></polygon>
                    </svg></g>
                </svg></g>
            </svg></g>
          <defs></defs>
        </svg>
        <rect width="395.52" height="144.52551474825444" fill="none" stroke="none" visibility="hidden"></rect>
      </g>
    </svg></g>
</svg>
