<svg width="241" height="217" viewBox="0 0 241 217" fill="none" xmlns="http://www.w3.org/2000/svg">
<path d="M8.22153 14.2887H5.93859C2.6588 14.2887 0 16.9475 0 20.2273V196.773C0 200.053 2.6588 202.711 5.93859 202.711H8.22153C11.5013 202.711 14.1601 200.053 14.1601 196.773V20.2273C14.1601 16.9475 11.5013 14.2887 8.22153 14.2887Z" fill="black"/>
<g clip-path="url(#clip0_1_56)">
<g clip-path="url(#clip1_1_56)">
<path fill-rule="evenodd" clip-rule="evenodd" d="M240.26 55.4556L191.796 131.888L192.037 41.23L240.26 55.4556Z" fill="black"/>
<path fill-rule="evenodd" clip-rule="evenodd" d="M146.95 0L188.903 80.29L110.542 34.72L146.95 0Z" fill="black"/>
<path fill-rule="evenodd" clip-rule="evenodd" d="M190.35 79.8078V41.23L173.472 46.5345L190.35 79.8078Z" fill="black"/>
<path fill-rule="evenodd" clip-rule="evenodd" d="M239.536 163.956L148.879 160.339L227.481 115.01L239.536 163.956Z" fill="black"/>
<path fill-rule="evenodd" clip-rule="evenodd" d="M193.484 132.852L226.516 113.563L213.496 101.749L193.484 132.852Z" fill="black"/>
<path fill-rule="evenodd" clip-rule="evenodd" d="M144.297 217L102.826 136.71L180.946 182.521L144.297 217Z" fill="black"/>
<path fill-rule="evenodd" clip-rule="evenodd" d="M148.637 161.544L181.67 180.833L185.527 163.714L148.637 161.544Z" fill="black"/>
<path fill-rule="evenodd" clip-rule="evenodd" d="M51.2286 161.062L100.415 84.8711L99.4508 175.529L51.2286 161.062Z" fill="black"/>
<path fill-rule="evenodd" clip-rule="evenodd" d="M101.38 137.192L101.139 175.529L118.016 170.224L101.38 137.192Z" fill="black"/>
<path fill-rule="evenodd" clip-rule="evenodd" d="M53.3986 52.5622L143.815 57.1433L64.9719 101.508L53.3986 52.5622Z" fill="black"/>
<path fill-rule="evenodd" clip-rule="evenodd" d="M99.2097 84.1478L65.6953 102.954L78.7153 115.01L99.2097 84.1478Z" fill="black"/>
<path fill-rule="evenodd" clip-rule="evenodd" d="M143.092 55.6967L110.06 36.1667L106.202 53.5267L143.092 55.6967Z" fill="black"/>
</g>
</g>
<defs>
<clipPath id="clip0_1_56">
<rect width="189.031" height="217" fill="white" transform="translate(51.2285)"/>
</clipPath>
<clipPath id="clip1_1_56">
<rect width="189.031" height="217" fill="white" transform="translate(51.2285)"/>
</clipPath>
</defs>
</svg>
